Patient4_TMGait_0pt4_02_left_35_GRF.mot
version=1
nRows=78
nColumns=19
inDegrees=no
endheader
time	F1x	F1y	F1z	M1x	M1y	M1z	F2x	F2y	F2z	M2x	M2y	M2z	EC1x	EC1y	EC1z	EC2x	EC2y	EC2z
46.79	-4.4319	0.6083	-0.36585	0.10939	0.38178	4.8036	-12.676	744.3855	-64.054	287.8456	70.5864	803.7436	-0.0592	0.0182	-0.0073	-0.0462	0.0165	0.9585
46.8035	-2.9424	0.93708	-0.21822	-0.10554	0.2495	3.7691	-14.7534	746.0337	-60.1446	288.0729	67.9661	802.7175	-0.0592	0.0182	-0.0073	-0.0462	0.0165	0.9585
46.817	-1.7054	1.2317	-0.088185	-0.28835	0.1271	2.9224	-16.2581	749.5216	-56.635	289.0533	65.3675	803.2637	-0.0592	0.0182	-0.0073	-0.0462	0.0165	0.9585
46.8305	-0.77763	1.472	0.021146	-0.43196	0.020218	2.308	-17.0831	754.9918	-53.8501	290.8275	63.0423	805.6439	-0.0592	0.0182	-0.0073	-0.0462	0.0165	0.9585
46.844	-0.15189	1.6543	0.10674	-0.53704	-0.069805	1.9141	-17.2638	762.0805	-51.9582	293.2138	61.1767	809.5713	-0.0592	0.0182	-0.0073	-0.0462	0.0165	0.9585
46.8575	0.21477	1.7749	0.18053	-0.60365	-0.15711	1.6958	-16.8912	769.9748	-50.9765	295.8567	59.8513	814.2671	-0.0592	0.0182	-0.0073	-0.0462	0.0165	0.9585
46.871	0.38361	1.8254	0.23848	-0.63379	-0.23919	1.5785	-16.0728	777.5722	-50.7839	298.3042	59.0239	818.6351	-0.0592	0.0182	-0.0073	-0.0462	0.0165	0.9585
46.8845	0.39485	1.7891	0.29374	-0.62474	-0.3338	1.4838	-14.9066	783.6416	-51.1573	300.0743	58.5446	821.4425	-0.0592	0.0182	-0.0073	-0.0462	0.0165	0.9585
46.898	0.30084	1.6299	0.34757	-0.56946	-0.44282	1.3116	-13.4685	787.0526	-51.8415	300.7341	58.2209	821.5731	-0.0592	0.0182	-0.0073	-0.0462	0.0165	0.9585
46.9115	0.13279	1.2952	0.41767	-0.45519	-0.58193	0.96862	-11.8115	787.0019	-52.5955	299.9852	57.861	818.2497	-0.0592	0.0182	-0.0073	-0.0462	0.0165	0.9585
46.925	-0.072498	0.7382	0.50195	-0.2681	-0.74287	0.37134	-9.9894	783.1703	-53.2398	297.7206	57.3294	811.1921	-0.0592	0.0182	-0.0073	-0.0462	0.0165	0.9585
46.9385	-0.28205	-0.08494	0.60058	0.0066318	-0.91654	-0.54861	-8.0566	775.7914	-53.6955	294.0464	56.5858	800.6777	-0.0592	0.0182	-0.0073	-0.0462	0.0165	0.9585
46.952	-0.45968	-1.1843	0.69565	0.37332	-1.0754	-1.8083	-6.0539	765.6706	-53.9851	289.2869	55.6796	787.5488	-0.0592	0.0182	-0.0073	-0.0462	0.0165	0.9585
46.9655	-0.55971	-2.5138	0.76738	0.81795	-1.1815	-3.3545	-4.011	754.0677	-54.209	283.9403	54.728	773.0885	-0.0592	0.0182	-0.0073	-0.0462	0.0165	0.9585
46.979	-0.52643	-3.9262	0.77938	1.2929	-1.1742	-5.0071	-1.9418	742.4716	-54.495	278.5926	53.864	758.7921	-0.0592	0.0182	-0.0073	-0.0462	0.0165	0.9585
46.9925	-0.27445	-5.1222	0.67988	1.6982	-0.96506	-6.4186	0.15135	732.328	-54.9583	273.8132	53.2028	746.1004	-0.0592	0.0182	-0.0073	-0.0462	0.0165	0.9585
47.006	0.28957	-5.6079	0.40645	1.8658	-0.4452	-7.0037	2.2483	724.7786	-55.6769	270.0557	52.828	736.1476	-0.0592	0.0182	-0.0073	-0.0462	0.0165	0.9585
47.0195	1.2647	-4.6404	-0.12353	1.5438	0.51597	-5.8938	4.3142	720.4758	-56.6883	267.5823	52.788	729.5684	-0.0592	0.0182	-0.0073	-0.0462	0.0165	0.9585
47.033	2.7322	-1.2378	-0.98381	0.39938	2.0346	-1.9407	6.3019	719.4862	-57.9876	266.4234	53.089	726.4085	-0.0592	0.0182	-0.0073	-0.0462	0.0165	0.9585
47.0465	4.7217	5.7926	-2.2425	-1.9714	4.1966	6.2671	8.1465	721.2232	-59.5245	266.3578	53.6976	726.069	-0.0592	0.0182	-0.0073	-0.0462	0.0165	0.9585
47.06	7.1605	17.7158	-3.9117	-5.9959	6.9892	20.2292	9.7735	724.4982	-61.1762	266.9382	54.5157	727.3788	-0.0592	0.0182	-0.0073	-0.0462	0.0165	0.9585
47.0735	9.811	35.6047	-5.9191	-12.0328	10.2403	41.2053	11.1085	727.7327	-62.7566	267.5735	55.388	728.8042	-0.0592	0.0182	-0.0073	-0.0462	0.0165	0.9585
47.087	12.1625	59.889	-8.0364	-20.2203	13.505	69.7075	12.09	729.1743	-64.0378	267.6115	56.1141	728.6361	-0.0592	0.0182	-0.0073	-0.0462	0.0165	0.9585
47.1005	13.3537	89.6975	-9.8078	-30.2558	15.9489	104.7266	12.6717	727.106	-64.7896	266.4183	56.4859	725.1978	-0.0592	0.0182	-0.0073	-0.0462	0.0165	0.9585
47.114	12.2309	122.1199	-10.4964	-41.1373	16.3127	142.8818	12.8405	720.0952	-64.8221	263.4686	56.3276	717.0774	-0.0592	0.0182	-0.0073	-0.0462	0.0165	0.9585
47.1275	8.3826	152.3081	-9.2187	-51.181	13.4408	178.5686	12.6329	707.3117	-64.0543	258.4588	55.5535	703.4412	-0.0592	0.0182	-0.0073	-0.0462	0.0165	0.9585
47.141	3.1101	175.5183	-5.7675	-58.7702	7.5938	206.1839	12.1505	688.8469	-62.5715	251.4218	54.2157	684.337	-0.0592	0.0182	-0.0073	-0.0462	0.0165	0.9585
47.1545	-2.0022	190.5932	-1.0235	-63.5542	0.32656	224.155	11.5739	665.7758	-60.6597	242.7441	52.524	660.7573	-0.0592	0.0182	-0.0073	-0.0462	0.0165	0.9585
47.168	-6.1904	200.0709	4.3026	-66.432	-7.2573	235.2845	11.1501	639.7411	-58.6815	233.0171	50.7305	634.2528	-0.0592	0.0182	-0.0073	-0.0462	0.0165	0.9585
47.1815	-9.2923	207.971	9.4747	-68.8097	-14.2642	244.1845	11.1243	612.4176	-56.823	222.8526	48.9243	606.4199	-0.0592	0.0182	-0.0073	-0.0462	0.0165	0.9585
47.195	-11.5546	217.9471	14.2299	-71.9488	-20.4432	255.111	11.6741	585.0754	-55.0009	212.7316	46.9709	578.4849	-0.0592	0.0182	-0.0073	-0.0462	0.0165	0.9585
47.2085	-13.3262	232.4214	18.2253	-76.692	-25.5392	270.8502	12.8536	558.3967	-52.936	202.9258	44.5979	551.1405	-0.0592	0.0182	-0.0073	-0.0462	0.0165	0.9585
47.222	-14.8543	252.5648	21.4824	-83.434	-29.6415	292.7307	14.6045	532.3851	-50.3475	193.4533	41.5747	524.4218	-0.0592	0.0182	-0.0073	-0.0462	0.0165	0.9585
47.2355	-16.2045	278.7573	24.0019	-92.2895	-32.7926	321.1137	16.7224	506.4628	-47.0715	184.1051	37.8213	497.8118	-0.0592	0.0182	-0.0073	-0.0462	0.0165	0.9585
47.249	-17.3361	310.7408	26.0643	-103.1327	-35.2883	355.6739	18.9443	479.6533	-43.1331	174.5096	33.4475	470.4147	-0.0592	0.0182	-0.0073	-0.0462	0.0165	0.9585
47.2625	-18.1646	347.4538	27.936	-115.5571	-37.4158	395.1477	20.9866	450.8604	-38.6693	164.2361	28.6731	441.2327	-0.0592	0.0182	-0.0073	-0.0462	0.0165	0.9585
47.276	-18.6664	387.1921	30.0777	-128.9275	-39.6665	437.5883	22.5459	419.0847	-33.8799	152.8849	23.7757	409.3618	-0.0592	0.0182	-0.0073	-0.0462	0.0165	0.9585
47.2895	-18.7896	428.2917	32.7414	-142.6354	-42.3069	481.0928	23.3531	383.641	-28.9465	140.1787	19.0057	374.1632	-0.0592	0.0182	-0.0073	-0.0462	0.0165	0.9585
47.303	-18.462	469.6449	36.0957	-156.2718	-45.4912	524.4095	23.1947	344.3992	-24.054	126.0463	14.6013	335.5255	-0.0592	0.0182	-0.0073	-0.0462	0.0165	0.9585
47.3165	-17.6417	510.7622	40.099	-169.6531	-49.1654	566.9917	21.9679	301.8746	-19.3578	110.6611	10.7394	293.9316	-0.0592	0.0182	-0.0073	-0.0462	0.0165	0.9585
47.33	-16.3009	551.5463	44.6693	-182.7425	-53.229	608.7504	19.6644	257.2283	-15.0109	94.4414	7.5596	250.4703	-0.0592	0.0182	-0.0073	-0.0462	0.0165	0.9585
47.3435	-14.4792	592.0179	49.6227	-195.5526	-57.5056	649.7602	16.4265	212.1885	-11.1428	78.0217	5.128	206.7684	-0.0592	0.0182	-0.0073	-0.0462	0.0165	0.9585
47.357	-12.3189	631.9072	54.7971	-208.009	-61.8782	689.8058	12.5838	168.8056	-7.8691	62.1577	3.4358	164.7406	-0.0592	0.0182	-0.0073	-0.0462	0.0165	0.9585
47.3705	-10.0496	670.4726	60.0288	-219.8917	-66.2589	728.1896	8.5615	129.0543	-5.2433	47.5823	2.3821	126.2331	-0.0592	0.0182	-0.0073	-0.0462	0.0165	0.9585
47.384	-7.8992	706.5434	65.1179	-230.8546	-70.5203	763.7509	4.7942	94.4106	-3.2504	34.8517	1.8047	92.619	-0.0592	0.0182	-0.0073	-0.0462	0.0165	0.9585
47.3975	-6.0334	738.7231	69.8292	-240.4934	-74.4755	795.0736	1.6018	65.6562	-1.8168	24.2667	1.5298	64.6488	-0.0592	0.0182	-0.0073	-0.0462	0.0165	0.9585
47.411	-4.5242	765.6412	73.8825	-248.4278	-77.8577	820.7412	-0.82638	42.8829	-0.84666	15.8728	1.4081	42.43	-0.0592	0.0182	-0.0073	-0.0462	0.0165	0.9585
47.4245	-3.3459	786.1988	77.0631	-254.3686	-80.4296	839.6072	-2.4107	25.6739	-0.243	9.5277	1.327	25.5849	-0.0592	0.0182	-0.0073	-0.0462	0.0165	0.9585
47.438	-2.408	799.725	79.2065	-258.1584	-81.9876	850.9693	-3.1594	13.3764	0.074648	4.9943	1.2214	13.5066	-0.0592	0.0182	-0.0073	-0.0462	0.0165	0.9585
47.4515	-1.59	806.0309	80.286	-259.7782	-82.4611	854.642	-3.1977	5.2401	0.18001	1.9967	1.0766	5.4791	-0.0592	0.0182	-0.0073	-0.0462	0.0165	0.9585
47.465	-0.75983	805.4538	80.3308	-259.3614	-81.8371	850.9803	-2.8338	0.45811	0.16161	0.23568	0.92113	0.73327	-0.0592	0.0182	-0.0073	-0.0462	0.0165	0.9585
47.4785	0.19685	798.8933	79.4733	-257.2013	-80.2145	840.9387	-2.2973	-1.8572	0.079319	-0.61542	0.78136	-1.5922	-0.0592	0.0182	-0.0073	-0.0462	0.0165	0.9585
47.492	1.3565	787.774	77.8717	-253.7421	-77.7366	826.0326	-1.7428	-2.5057	-0.023121	-0.85398	0.67068	-2.2634	-0.0592	0.0182	-0.0073	-0.0462	0.0165	0.9585
47.5055	2.7458	773.8776	75.7642	-249.5229	-74.6442	808.1658	-1.2579	-2.1596	-0.12451	-0.72654	0.59876	-1.9356	-0.0592	0.0182	-0.0073	-0.0462	0.0165	0.9585
47.519	4.3484	759.0835	73.371	-245.1068	-71.1726	789.3432	-0.88201	-1.3216	-0.20624	-0.41612	0.55883	-1.108	-0.0592	0.0182	-0.0073	-0.0462	0.0165	0.9585
47.5325	6.1054	745.1254	70.9329	-241.0073	-67.585	771.4127	-0.62277	-0.31135	-0.2703	-0.042743	0.55004	-0.091333	-0.0592	0.0182	-0.0073	-0.0462	0.0165	0.9585
47.546	7.9471	733.4062	68.6175	-237.6383	-64.0777	755.8476	-0.45701	0.66782	-0.31167	0.31879	0.55427	0.90641	-0.0592	0.0182	-0.0073	-0.0462	0.0165	0.9585
47.5595	9.8118	724.8911	66.5792	-235.2818	-60.83	743.652	-0.38293	1.5035	-0.33827	0.6284	0.57131	1.7752	-0.0592	0.0182	-0.0073	-0.0462	0.0165	0.9585
47.573	11.6434	720.0702	64.89	-234.0754	-57.9385	735.3197	-0.37752	2.1498	-0.35061	0.86901	0.59343	2.458	-0.0592	0.0182	-0.0073	-0.0462	0.0165	0.9585
47.5865	13.3986	718.9732	63.6106	-234.0111	-55.4821	730.8546	-0.42384	2.6008	-0.36319	1.0356	0.63113	2.9431	-0.0592	0.0182	-0.0073	-0.0462	0.0165	0.9585
47.6	15.0628	721.2716	62.7533	-234.9725	-53.4816	729.8862	-0.52301	2.8446	-0.37896	1.1226	0.68754	3.2148	-0.0592	0.0182	-0.0073	-0.0462	0.0165	0.9585
47.6135	16.6412	726.3999	62.3292	-236.7706	-51.9545	731.8268	-0.66766	2.8483	-0.40702	1.1158	0.77187	3.2259	-0.0592	0.0182	-0.0073	-0.0462	0.0165	0.9585
47.627	18.1517	733.6854	62.3022	-239.1865	-50.8682	735.9732	-0.85502	2.5844	-0.44806	0.99983	0.88587	2.9323	-0.0592	0.0182	-0.0073	-0.0462	0.0165	0.9585
47.6405	19.6354	742.4436	62.6329	-241.998	-50.1732	741.6042	-1.0678	1.9869	-0.50807	0.74963	1.0292	2.246	-0.0592	0.0182	-0.0073	-0.0462	0.0165	0.9585
47.654	21.157	752.0101	63.2435	-244.9909	-49.7729	748.0222	-1.2934	0.9841	-0.58202	0.33847	1.1893	1.0922	-0.0592	0.0182	-0.0073	-0.0462	0.0165	0.9585
47.6675	22.8059	761.6663	64.0671	-247.9339	-49.5723	754.489	-1.4863	-0.47016	-0.66774	-0.25256	1.346	-0.57921	-0.0592	0.0182	-0.0073	-0.0462	0.0165	0.9585
47.681	24.6711	770.6336	65.0276	-250.5744	-49.4681	760.2259	-1.5702	-2.3727	-0.74229	-1.0221	1.447	-2.7649	-0.0592	0.0182	-0.0073	-0.0462	0.0165	0.9585
47.6945	26.8114	778.0813	66.05	-252.6398	-49.3688	764.4354	-1.4479	-4.6285	-0.77156	-1.9285	1.4154	-5.3458	-0.0592	0.0182	-0.0073	-0.0462	0.0165	0.9585
47.708	29.2128	783.0935	67.0554	-253.8264	-49.2052	766.2886	-0.96341	-6.9615	-0.70104	-2.8581	1.1306	-8.0054	-0.0592	0.0182	-0.0073	-0.0462	0.0165	0.9585
47.7215	31.7967	784.7101	67.9809	-253.8081	-48.9493	764.9447	0.070421	-8.8257	-0.4577	-3.5918	0.43931	-10.1204	-0.0592	0.0182	-0.0073	-0.0462	0.0165	0.9585
47.735	34.4398	782.1446	68.7855	-252.3089	-48.6114	759.7433	1.8498	-9.3587	0.052003	-3.779	-0.84145	-10.7133	-0.0592	0.0182	-0.0073	-0.0462	0.0165	0.9585
47.7485	36.9862	775.0176	69.443	-249.1891	-48.2319	750.4221	4.5442	-7.2914	0.91874	-2.9061	-2.8827	-8.3389	-0.0592	0.0182	-0.0073	-0.0462	0.0165	0.9585
47.762	39.2884	763.4674	69.9313	-244.4884	-47.8544	737.2012	8.2358	-0.92773	2.2162	-0.29058	-5.7959	-1.0634	-0.0592	0.0182	-0.0073	-0.0462	0.0165	0.9585
47.7755	41.224	748.0666	70.1942	-238.4046	-47.4791	720.7076	12.8093	11.7469	3.9698	4.8786	-9.551	13.4088	-0.0592	0.0182	-0.0073	-0.0462	0.0165	0.9585
47.789	42.7029	729.5758	70.1272	-231.2182	-47.0471	701.7269	17.8068	32.8237	6.108	13.4415	-13.8678	37.4655	-0.0592	0.0182	-0.0073	-0.0462	0.0165	0.9585
47.8025	43.6491	708.6195	69.5559	-223.1859	-46.4222	680.8812	22.2941	64.0012	8.3945	26.0739	-18.0881	73.036	-0.0592	0.0182	-0.0073	-0.0462	0.0165	0.9585
47.816	43.9917	685.392	68.268	-214.441	-45.4267	658.3556	24.6677	105.7929	10.3465	42.967	-21.0159	120.7057	-0.0592	0.0182	-0.0073	-0.0462	0.0165	0.9585
47.8295	43.6772	659.579	66.0238	-204.9665	-43.8464	633.8106	23.0354	156.8698	11.1621	63.5394	-20.994	179.0157	-0.0592	0.0182	-0.0073	-0.0462	0.0165	0.9585
